<?xml version="1.0" encoding="UTF-8" standalone="no"?>
<!-- Nut Shop Logo (White Version) -->
<svg 
   width="400"
   height="400"
   viewBox="0 0 400 400"
   version="1.1"
   id="nutshop-logo-white"
   xmlns="http://www.w3.org/2000/svg"
   xmlns:svg="http://www.w3.org/2000/svg">
  
  <!-- Шоколадка (фон) -->
  <rect x="80" y="140" width="180" height="180" rx="10" ry="10" fill="#FFFFFF" stroke="#FFFFFF" stroke-width="4" opacity="0.9" />
  
  <!-- Лінії на шоколадці -->
  <line x1="140" y1="140" x2="140" y2="320" stroke="#FFFFFF" stroke-width="4" />
  <line x1="200" y1="140" x2="200" y2="320" stroke="#FFFFFF" stroke-width="4" />
  <line x1="80" y1="200" x2="260" y2="200" stroke="#FFFFFF" stroke-width="4" />
  <line x1="80" y1="260" x2="260" y2="260" stroke="#FFFFFF" stroke-width="4" />
  
  <!-- Горішок (лісовий/фундук) -->
  <g id="nut" transform="translate(160, 100) scale(1.8)">
    <!-- Шкаралупа горіха -->
    <ellipse cx="40" cy="40" rx="30" ry="25" fill="#FFFFFF" stroke="#FFFFFF" stroke-width="2" opacity="0.9" />
    
    <!-- Верхня частина горіха (структура) -->
    <path d="M 20,35 C 30,25 50,25 60,35" stroke="#FFFFFF" stroke-width="2" fill="none" />
    <path d="M 20,45 C 30,35 50,35 60,45" stroke="#FFFFFF" stroke-width="2" fill="none" />
    
    <!-- Точки на горіху -->
    <circle cx="30" cy="38" r="2" fill="#FFFFFF" />
    <circle cx="50" cy="38" r="2" fill="#FFFFFF" />
    <circle cx="35" cy="50" r="2" fill="#FFFFFF" />
    <circle cx="45" cy="50" r="2" fill="#FFFFFF" />
  </g>
  
  <!-- Цукерка -->
  <g id="candy" transform="translate(280, 220) rotate(-30) scale(2)">
    <!-- Обгортка цукерки -->
    <path d="M 0,0 L 10,-20 L 40,-20 L 50,0 L 40,20 L 10,20 Z" fill="#FFFFFF" stroke="#FFFFFF" stroke-width="2" />
    
    <!-- Кінчики обгортки -->
    <path d="M 0,0 L -10,0 L -15,5 L -10,10 L 0,10 Z" fill="#FFFFFF" stroke="#FFFFFF" stroke-width="1.5" opacity="0.8" />
    <path d="M 50,0 L 60,0 L 65,5 L 60,10 L 50,10 Z" fill="#FFFFFF" stroke="#FFFFFF" stroke-width="1.5" opacity="0.8" />
    
    <!-- Смужки на цукерці -->
    <path d="M 20,-15 L 30,-15 L 35,-5 L 25,15 L 15,15 Z" fill="#FFFFFF" stroke="none" opacity="0.7" />
  </g>
  
  <!-- Ще один горішок (грецький) -->
  <g id="walnut" transform="translate(50, 90) scale(1.4)">
    <path d="M 40,20 C 60,10 80,20 80,40 C 80,65 60,80 40,80 C 20,80 0,65 0,40 C 0,20 20,10 40,20 Z" 
          fill="#FFFFFF" stroke="#FFFFFF" stroke-width="2" />
    <path d="M 40,20 C 50,30 60,30 70,25 M 40,20 C 30,30 20,30 10,25" 
          stroke="#FFFFFF" stroke-width="1.5" fill="none" />
    <path d="M 40,20 L 40,80 M 20,40 C 25,50 40,60 60,55 M 60,40 C 55,50 40,60 20,55" 
          stroke="#FFFFFF" stroke-width="1.5" fill="none" />
  </g>
</svg> 