<?xml version="1.0" encoding="UTF-8"?>
<svg width="180" height="60" viewBox="0 0 180 60" fill="none" xmlns="http://www.w3.org/2000/svg">
  <!-- Основа логотипу -->
  <g>
    <!-- Горіх (стилізований) -->
    <path d="M30 10C18.95 10 10 18.95 10 30C10 41.05 18.95 50 30 50C41.05 50 50 41.05 50 30C50 18.95 41.05 10 30 10Z" fill="#F59E0B" />
    <path d="M30 15C21.72 15 15 21.72 15 30C15 38.28 21.72 45 30 45C38.28 45 45 38.28 45 30C45 21.72 38.28 15 30 15ZM24.5 25C25.88 25 27 26.12 27 27.5C27 28.88 25.88 30 24.5 30C23.12 30 22 28.88 22 27.5C22 26.12 23.12 25 24.5 25ZM35.5 35C34.12 35 33 33.88 33 32.5C33 31.12 34.12 30 35.5 30C36.88 30 38 31.12 38 32.5C38 33.88 36.88 35 35.5 35Z" fill="#B45309" />
    <!-- Шкаралупа -->
    <path d="M30 12.5C19.78 12.5 11.5 19.83 11.5 29C11.5 38.17 19.78 45.5 30 45.5C40.22 45.5 48.5 38.17 48.5 29C48.5 19.83 40.22 12.5 30 12.5ZM30 15C38.28 15 45 21.72 45 30C45 38.28 38.28 45 30 45C21.72 45 15 38.28 15 30C15 21.72 21.72 15 30 15Z" fill="#FBBF24" />
  </g>
  
  <!-- Текст "NutsShop" -->
  <path d="M65 32.5L65 20H68L73 27.5L78 20H81V32.5H78V25L73.5 32.5H72.5L68 25V32.5H65Z" fill="#FFFFFF" />
  <path d="M84 32.5V20H87L93 28V20H96V32.5H93L87 24.5V32.5H84Z" fill="#FFFFFF" />
  <path d="M98 32.5V20H101V29.5H108V32.5H98Z" fill="#FFFFFF" />
  <path d="M109 29V23.5C109 22.5 109.333 21.6667 110 21C110.667 20.3333 111.5 20 112.5 20H118.5C119.5 20 120.333 20.3333 121 21C121.667 21.6667 122 22.5 122 23.5V26H119V23.5C119 23.1667 118.833 23 118.5 23H112.5C112.167 23 112 23.1667 112 23.5V29C112 29.3333 112.167 29.5 112.5 29.5H118.5C118.833 29.5 119 29.3333 119 29V27.5H115.5V24.5H122V29C122 30 121.667 30.8333 121 31.5C120.333 32.1667 119.5 32.5 118.5 32.5H112.5C111.5 32.5 110.667 32.1667 110 31.5C109.333 30.8333 109 30 109 29Z" fill="#FFFFFF" />
  <path d="M124 32.5V20H133.5C134.5 20 135.333 20.3333 136 21C136.667 21.6667 137 22.5 137 23.5V29C137 30 136.667 30.8333 136 31.5C135.333 32.1667 134.5 32.5 133.5 32.5H124ZM127 29.5H133.5C133.833 29.5 134 29.3333 134 29V23.5C134 23.1667 133.833 23 133.5 23H127V29.5Z" fill="#FFFFFF" />
  <path d="M139 32.5V20H142V24.5H148.5V20H151.5V32.5H148.5V27.5H142V32.5H139Z" fill="#FFFFFF" />
  <path d="M154 29V23.5C154 22.5 154.333 21.6667 155 21C155.667 20.3333 156.5 20 157.5 20H163.5C164.5 20 165.333 20.3333 166 21C166.667 21.6667 167 22.5 167 23.5V29C167 30 166.667 30.8333 166 31.5C165.333 32.1667 164.5 32.5 163.5 32.5H157.5C156.5 32.5 155.667 32.1667 155 31.5C154.333 30.8333 154 30 154 29ZM157 29C157 29.3333 157.167 29.5 157.5 29.5H163.5C163.833 29.5 164 29.3333 164 29V23.5C164 23.1667 163.833 23 163.5 23H157.5C157.167 23 157 23.1667 157 23.5V29Z" fill="#FFFFFF" />
  <path d="M169 20H177.5C178.5 20 179.333 20.3333 180 21C180.667 21.6667 181 22.5 181 23.5V26C181 27 180.667 27.8333 180 28.5C179.333 29.1667 178.5 29.5 177.5 29.5H172V32.5H169V20ZM172 26.5H177.5C177.833 26.5 178 26.3333 178 26V23.5C178 23.1667 177.833 23 177.5 23H172V26.5Z" fill="#FFFFFF" />
</svg> 